<?xml version="1.0" encoding="utf-8"?>
<!-- Generator: Adobe Illustrator 19.0.0, SVG Export Plug-In . SVG Version: 6.00 Build 0)  -->
<svg version="1.1" id="Layer_1" xmlns="http://www.w3.org/2000/svg" xmlns:xlink="http://www.w3.org/1999/xlink" x="0px" y="0px"
	 viewBox="0 0 96 96" style="enable-background:new 0 0 96 96;" xml:space="preserve">
<style type="text/css">
	.st0{fill:#77B3D4;}
	.st1{fill:#6695B0;}
	.st2{fill:#FFFFFF;}
</style>
<g id="XMLID_1_">
	<path id="XMLID_3_" class="st0" d="M48,15.5c17.9,0,32.5,14.6,32.5,32.5S65.9,80.5,48,80.5c-17.9,0-32.5-14.6-32.5-32.5
		S30.1,15.5,48,15.5"/>
	<path id="XMLID_7_" class="st1" d="M37.6,67.6C31.5,64,27.5,57.4,27.5,49.9c0-3.4,0.8-6.5,2.3-9.3c0.2,0.8-0.2,2.4-0.5,4.6
		c-0.4,2.5,1.6,2,1.6,4.5c0,2.4,1.8,3.5,1.5,3.7c-0.2,0.2-1.2,0.6,0.2,3.8c1.4,3.1,2.7,4.1,2.8,5.8c0.2,1.7,2,4.3,2,4.3L37.6,67.6
		 M40.9,31.8c-0.6,0-0.5-0.5-0.1-0.9c2.2-0.8,4.7-1.3,7.2-1.3c2.5,0,5.1,0.5,7.3,1.3c0.3,0.4,0.4,0.7,0.2,0.8
		c-0.8,0.5-1.5,0.1-1.3,1.6c0.2,1.3,1.1,3,2,3c0.1,0,0.2,0,0.4-0.1c0.2-0.1,0.5-0.2,0.7-0.2c0.8,0,1.4,0.6,0.4,1.2
		c-1.3,0.8-1.7,0.8-2.3,1.3c-0.6,0.5-0.3,0.3,0.3,1c0.6,0.7,0.5,0.8-0.3,1.2c-0.9,0.3-1.4,1.1-0.5,2c0.5,0.5,0.9,1,1.3,1
		c0.3,0,0.7-0.3,1.1-1c0.8-1.4,1-2.6,1.6-2.6c0.1,0,0.2,0,0.3,0.1c0.6,0.3,1.4,1.2,1.9,1.2c0.1,0,0.3-0.1,0.4-0.2
		c0.4-0.5,0.5-0.9,0.8-0.9c0.1,0,0.3,0.1,0.5,0.2c0.8,0.5,3.8,0.6,1.8,2c-1.8,1.3-1.7,2-2.3,2c-0.1,0-0.2,0-0.3,0
		c-0.4-0.1-1.5-0.3-2.7-0.3c-1.4,0-2.9,0.3-3.5,1.7c-1,2.3-4.6,4.3-2.6,6.6c1.8,2.3,1.4,4,4.1,4.4c0.3,0,0.7,0.1,1,0.1
		c0.6,0,1.1-0.1,1.5-0.1c0.4-0.1,0.8-0.1,1.1-0.1c0.5,0,0.8,0.1,1.1,0.6c0.7,1.2,0.1,1.3,0.2,3.3c0,0.9,0.5,2.6,1,4.2
		c-3.8,3.9-8.9,6.3-14.7,6.3c-2.9,0-5.7-0.6-8.2-1.7c-0.3-0.7-0.3-0.9-0.3-1c-0.1-0.4,0.1-2.8,3-3.9c2.9-1,2.4-2.2,3.4-3.6
		c0.9-1.2,1-2.2-0.6-2.5c-1.6-0.4-3.5-0.7-4.9-3c-1.5-2.3-3.6-2.4-4.7-3.1c-1.1-0.7-2-0.6-3.4-0.8c-1.5-0.1-1-4-1-4.8
		c0-0.2,0-0.3-0.1-0.3c-0.1,0-0.2,0-0.4,0.1c-0.1,0-0.3,0.1-0.5,0.1c-0.2,0-0.4,0-0.5-0.2c-0.7-0.6,0.6-3.2,1.9-3.2c0,0,0,0,0.1,0
		c1.3,0.1,1,0.7,1.2,2.1c0.1,0.8,0.3,1,0.5,1c0.1,0,0.3-0.2,0.3-0.4c0.1-0.4,0.2-2.3,0.6-2.9c0.4-0.6,0.5-2.1,1.9-2.1
		c0,0,0.1,0,0.1,0c0,0,0.1,0,0.1,0c0.6,0,0.9-0.2,1.2-0.5c0.3-0.2,0.5-0.5,0.9-0.5c0.1,0,0.2,0,0.4,0.1c0.4,0.1,0.7,0.2,0.9,0.2
		c0.5,0,0.7-0.3,0.2-0.7c-0.6-0.5-0.4-0.9,0.2-0.9c0.2,0,0.4,0,0.7,0.1c0.1,0,0.2,0.1,0.3,0.1c0.9,0,0.9-1.9,0.7-2.8
		c-0.1-0.7-0.5-1.1-1.1-1.1c-0.3,0-0.7,0.1-1,0.4c-0.4,0.3-0.8,0.4-1,0.4c-0.5,0-0.7-0.4-0.3-1.1c0.2-0.4,0.6-0.5,1-0.5
		c0.9,0,2.2,0.5,3,0.9c0.1,0.1,0.3,0.1,0.4,0.1c1,0,1.1-1.6,0.5-2.5c-0.3-0.5-0.5-0.6-0.9-0.6c-0.4,0-0.9,0.2-2,0.2
		C41,31.8,41,31.8,40.9,31.8 M48,27.6c-12.4,0-22.3,10-22.3,22.3c0,12.4,10,22.3,22.3,22.3s22.3-10,22.3-22.3
		C70.3,37.5,60.4,27.6,48,27.6"/>
	<path id="XMLID_8_" class="st1" d="M46.8,30.5c-0.3,0-0.6,0-0.8,0.1c-1.2,0.2-0.7,0.7-0.7,0.7c0.4,0.7,0.7,3.1-0.1,4
		C44.8,35.7,45,36,45.4,36c0.3,0,0.7-0.2,1-0.6c0.7-0.7,1-1,1.7-1.4c0.6-0.4,0.7,0.1,1.2-1.6C49.7,30.9,48.1,30.5,46.8,30.5"/>
	<path id="XMLID_12_" class="st2" d="M48,25.8c-12.4,0-22.3,10-22.3,22.3s10,22.3,22.3,22.3s22.3-10,22.3-22.3S60.4,25.8,48,25.8z
		 M29.8,38.8c0.2,0.8-0.2,2.4-0.5,4.6c-0.4,2.5,1.6,2,1.6,4.5c0,2.4,1.8,3.5,1.5,3.7c-0.2,0.2-1.2,0.6,0.2,3.8
		c1.4,3.1,2.7,4.1,2.8,5.8c0.2,1.7,2,4.3,2,4.3l0.1,0.5c-6.1-3.6-10.2-10.2-10.2-17.7C27.5,44.7,28.3,41.6,29.8,38.8z M39.9,66.3
		c-0.1-0.4,0.1-2.8,3-3.9s2.4-2.2,3.4-3.6c0.9-1.2,1-2.2-0.6-2.5c-1.6-0.4-3.5-0.7-4.9-3c-1.5-2.3-3.6-2.4-4.7-3.1
		c-1.1-0.7-2-0.6-3.4-0.8c-1.3-0.2-0.9-4-0.8-4.8c0.1-0.8-0.8,0.3-1.5-0.3c-0.7-0.6,0.6-3.3,1.9-3.1c1.3,0.1,1,0.7,1.2,2.1
		c0.2,1.4,0.7,1.1,0.8,0.6c0.1-0.4,0.2-2.3,0.6-2.9c0.4-0.6,0.5-2.2,2-2.1c1.4,0.1,1.4-1.3,2.5-0.9c1.1,0.4,1.8,0.1,1.1-0.5
		c-0.7-0.6-0.3-1.2,0.9-0.8c1.2,0.4,1.2-1.7,1-2.7c-0.2-1.1-1.1-1.4-2.1-0.7c-1.1,0.7-1.9,0.4-1.3-0.7c0.5-1.1,2.7-0.2,4.1,0.4
		c1.3,0.5,1.6-1.4,0.9-2.4c-0.7-1-0.8-0.5-2.8-0.4C40.5,30,40.6,29.5,41,29c2.2-0.8,4.7-1.3,7.2-1.3c2.5,0,5.1,0.5,7.3,1.3
		c0.3,0.4,0.4,0.7,0.2,0.8c-0.8,0.5-1.5,0.1-1.3,1.6s1.4,3.5,2.3,2.8c0.9-0.6,2.4,0.2,1.1,1s-1.7,0.8-2.3,1.3
		c-0.6,0.5-0.3,0.3,0.3,1c0.6,0.7,0.5,0.8-0.3,1.2c-0.9,0.3-1.4,1.1-0.5,2c0.8,0.9,1.4,1.6,2.3,0c0.9-1.6,1.1-3,1.9-2.5
		c0.8,0.4,1.7,1.7,2.3,1c0.6-0.7,0.5-1.2,1.3-0.7s3.8,0.6,1.8,2c-2,1.4-1.6,2.1-2.5,1.9c-0.9-0.2-5.2-1.1-6.2,1.3
		c-1,2.3-4.6,4.3-2.6,6.6c1.8,2.3,1.4,4,4.1,4.4c2.6,0.3,4-0.8,4.7,0.4c0.7,1.2,0.1,1.3,0.2,3.2c0,0.9,0.5,2.6,1,4.2
		c-3.8,3.9-8.9,6.3-14.7,6.3c-2.9,0-5.7-0.6-8.2-1.7C39.9,66.6,39.9,66.4,39.9,66.3z"/>
	<path id="XMLID_13_" class="st2" d="M48.1,32.2c0.6-0.4,0.7,0.1,1.2-1.6c0.5-1.8-2.1-2-3.4-1.8c-1.2,0.2-0.7,0.7-0.7,0.7
		c0.4,0.7,0.7,3.1-0.1,4c-0.7,0.9,0.6,1.1,1.2,0.2C47,32.7,47.4,32.6,48.1,32.2z"/>
</g>
</svg>
